<svg width="559" height="848" viewBox="0 0 559 848" fill="none" xmlns="http://www.w3.org/2000/svg">
<path d="M342.39 613.652H217.355C191.962 613.652 171.069 633.027 171.39 656.944V774.709C171.39 798.625 191.962 818.001 217.355 818.001H225.326C230.745 827.1 238.64 834.676 248.199 839.948C257.757 845.221 268.635 848 279.712 848C290.789 848 301.666 845.221 311.225 839.948C320.784 834.676 328.678 827.1 334.098 818.001H342.39C367.783 818.001 388.355 798.625 388.355 774.709V656.944C388.355 633.027 367.783 613.652 342.39 613.652Z" fill="#9B9B9B"/>
<path d="M358.75 639.687C366.464 639.687 372.571 634.238 373.214 627.275C375.464 601.239 387.357 537.967 452.286 470.153C483.265 447.177 508.712 418.267 526.942 385.336C545.173 352.404 555.771 316.203 558.036 279.125C558.679 271.859 559 267.016 559 263.988V260.961C557.071 116.252 432.679 3.789e-07 279.357 3.789e-07C205.775 -0.00371654 135.163 27.3392 82.8629 76.0886C30.5623 124.838 0.797783 191.055 0.0357125 260.355C0.0357125 260.355 -0.285709 267.621 1 279.731C6.14286 356.626 46 424.743 106.75 469.851C171.679 537.967 184.536 601.239 186.786 627.275C187.429 634.238 193.536 639.687 201.25 639.687H358.75Z" fill="#FCD53F"/>
<path d="M279.67 263.381C331.741 263.381 374.169 303.04 374.812 352.084V354.506C374.812 355.414 374.812 356.625 374.491 358.441C372.884 383.871 359.705 407.788 338.491 423.53L336.241 425.044L334.312 426.86C298.955 463.794 291.562 557.643 290.277 609.109H269.384C267.777 557.643 260.062 463.794 224.705 426.86L222.777 425.044L220.527 423.53C209.91 415.622 201.207 405.671 194.999 394.342C188.79 383.014 185.22 370.568 184.527 357.836C184.527 356.625 184.205 355.717 184.205 355.111V352.386C185.17 303.343 227.92 263.381 279.67 263.381ZM279.67 233.107C253.22 233.116 227.429 240.886 205.884 255.336C184.338 269.786 168.107 290.199 159.446 313.738C150.786 337.277 150.126 362.772 157.559 386.68C164.991 410.588 180.147 431.722 200.92 447.144C239.491 487.711 237.562 639.686 237.562 639.686H322.42C322.42 639.686 319.848 487.711 358.741 447.446C386.384 426.86 404.705 395.678 406.955 360.258C407.277 356.928 407.277 354.808 407.277 353.295V352.084C406.93 320.421 393.333 290.166 369.441 267.889C345.548 245.612 313.289 233.114 279.67 233.107Z" fill="#FFB02E"/>
<path d="M391.059 697.904C393.14 697.562 395.129 696.838 396.913 695.772C398.697 694.706 400.24 693.319 401.455 691.692C402.67 690.064 403.532 688.227 403.993 686.285C404.454 684.344 404.504 682.336 404.141 680.376C403.778 678.416 403.009 676.542 401.877 674.862C400.746 673.182 399.274 671.729 397.545 670.585C395.817 669.44 393.867 668.628 391.805 668.194C389.744 667.76 387.612 667.712 385.531 668.054L168.888 703.777C166.807 704.119 164.818 704.844 163.034 705.91C161.25 706.976 159.707 708.362 158.492 709.99C157.278 711.617 156.415 713.455 155.954 715.396C155.493 717.338 155.443 719.346 155.806 721.306C156.169 723.266 156.938 725.139 158.07 726.819C159.202 728.499 160.674 729.953 162.402 731.097C164.13 732.241 166.08 733.053 168.142 733.488C170.203 733.922 172.335 733.969 174.416 733.627L391.059 697.904ZM389.452 762.993C393.603 762.255 397.278 760.007 399.682 756.736C402.087 753.465 403.028 749.434 402.301 745.515C401.574 741.596 399.239 738.104 395.8 735.794C392.361 733.485 388.094 732.543 383.924 733.173L170.174 768.594C168.024 768.861 165.954 769.536 164.089 770.577C162.223 771.617 160.601 773.003 159.319 774.65C158.037 776.296 157.122 778.171 156.629 780.159C156.136 782.148 156.075 784.21 156.451 786.221C156.826 788.232 157.63 790.151 158.813 791.862C159.997 793.573 161.536 795.041 163.337 796.177C165.139 797.314 167.166 798.095 169.296 798.474C171.427 798.853 173.617 798.822 175.734 798.383L389.452 762.993Z" fill="#D3D3D3"/>
<path d="M218.344 104.141C182.666 162.267 200.666 234.924 258.523 266.106C316.38 297.288 391.916 275.794 427.594 217.668C463.273 159.542 445.273 86.885 387.416 55.7029C329.559 24.5208 254.023 46.0153 218.344 104.141Z" fill="#FFF478"/>
</svg>
