<svg width="456" height="456" viewBox="0 0 456 456" fill="none" xmlns="http://www.w3.org/2000/svg">
<g filter="url(#filter0_d_43_2499)">
<path d="M228.002 144.921C206.998 144.921 186.854 153.251 172.001 168.079C157.149 182.906 148.805 203.017 148.805 223.987C148.805 244.956 157.149 265.067 172.001 279.895C186.854 294.722 206.998 303.053 228.002 303.053C249.007 303.053 269.151 294.722 284.004 279.895C298.856 265.067 307.2 244.956 307.2 223.987C307.2 203.017 298.856 182.906 284.004 168.079C269.151 153.251 249.007 144.921 228.002 144.921Z" fill="#5F5F5F"/>
<path fill-rule="evenodd" clip-rule="evenodd" d="M100.553 7.03016C185.259 -2.34339 270.742 -2.34339 355.448 7.03016C401.724 12.1877 439.032 48.558 444.466 94.9271C454.511 180.675 454.511 267.299 444.466 353.047C439.032 399.416 401.724 435.786 355.472 440.968C270.759 450.344 185.267 450.344 100.553 440.968C54.2773 435.786 16.969 399.416 11.5349 353.071C1.48838 267.315 1.48838 180.683 11.5349 94.9271C16.969 48.558 54.2773 12.1877 100.553 7.03016ZM349.843 78.0191C343.38 78.0191 337.182 80.5823 332.612 85.1446C328.042 89.707 325.475 95.8949 325.475 102.347C325.475 108.799 328.042 114.987 332.612 119.55C337.182 124.112 343.38 126.675 349.843 126.675C356.306 126.675 362.504 124.112 367.074 119.55C371.644 114.987 374.212 108.799 374.212 102.347C374.212 95.8949 371.644 89.707 367.074 85.1446C362.504 80.5823 356.306 78.0191 349.843 78.0191ZM112.25 223.987C112.25 193.339 124.445 163.946 146.153 142.275C167.86 120.604 197.302 108.429 228.001 108.429C258.699 108.429 288.141 120.604 309.849 142.275C331.556 163.946 343.751 193.339 343.751 223.987C343.751 254.635 331.556 284.027 309.849 305.699C288.141 327.37 258.699 339.545 228.001 339.545C197.302 339.545 167.86 327.37 146.153 305.699C124.445 284.027 112.25 254.635 112.25 223.987Z" fill="#5F5F5F"/>
</g>
<defs>
<filter id="filter0_d_43_2499" x="0" y="0" width="456" height="456" filterUnits="userSpaceOnUse" color-interpolation-filters="sRGB">
<feFlood flood-opacity="0" result="BackgroundImageFix"/>
<feColorMatrix in="SourceAlpha" type="matrix" values="0 0 0 0 0 0 0 0 0 0 0 0 0 0 0 0 0 0 127 0" result="hardAlpha"/>
<feOffset dy="4"/>
<feGaussianBlur stdDeviation="2"/>
<feComposite in2="hardAlpha" operator="out"/>
<feColorMatrix type="matrix" values="0 0 0 0 0 0 0 0 0 0 0 0 0 0 0 0 0 0 0.25 0"/>
<feBlend mode="normal" in2="BackgroundImageFix" result="effect1_dropShadow_43_2499"/>
<feBlend mode="normal" in="SourceGraphic" in2="effect1_dropShadow_43_2499" result="shape"/>
</filter>
</defs>
</svg>
