<svg width="6703" height="1235" viewBox="0 0 6703 1235" fill="none" xmlns="http://www.w3.org/2000/svg">
<path d="M6486.39 806.652H6361.35C6335.96 806.652 6315.07 826.027 6315.39 849.944V967.709C6315.39 991.625 6335.96 1011 6361.35 1011H6369.33C6374.75 1020.1 6382.64 1027.68 6392.2 1032.95C6401.76 1038.22 6412.63 1041 6423.71 1041C6434.79 1041 6445.67 1038.22 6455.22 1032.95C6464.78 1027.68 6472.68 1020.1 6478.1 1011H6486.39C6511.78 1011 6532.35 991.625 6532.35 967.709V849.944C6532.35 826.027 6511.78 806.652 6486.39 806.652Z" fill="#9B9B9B"/>
<path d="M6502.75 832.687C6510.46 832.687 6516.57 827.238 6517.21 820.275C6519.46 794.239 6531.36 730.967 6596.29 663.153C6627.27 640.177 6652.71 611.267 6670.94 578.336C6689.17 545.404 6699.77 509.203 6702.04 472.125C6702.68 464.859 6703 460.016 6703 456.988V453.961C6701.07 309.252 6576.68 193 6423.36 193C6349.78 192.996 6279.16 220.339 6226.86 269.089C6174.56 317.838 6144.8 384.055 6144.04 453.355C6144.04 453.355 6143.71 460.621 6145 472.731C6150.14 549.626 6190 617.743 6250.75 662.851C6315.68 730.967 6328.54 794.239 6330.79 820.275C6331.43 827.238 6337.54 832.687 6345.25 832.687H6502.75Z" fill="#FCD53F"/>
<path d="M6423.67 456.381C6475.74 456.381 6518.17 496.04 6518.81 545.084V547.506C6518.81 548.414 6518.81 549.625 6518.49 551.441C6516.88 576.871 6503.7 600.788 6482.49 616.53L6480.24 618.044L6478.31 619.86C6442.95 656.794 6435.56 750.643 6434.27 802.109H6413.38C6411.77 750.643 6404.06 656.794 6368.7 619.86L6366.77 618.044L6364.52 616.53C6353.91 608.622 6345.2 598.671 6339 587.342C6332.79 576.014 6329.22 563.568 6328.52 550.836C6328.52 549.625 6328.2 548.717 6328.2 548.111V545.387C6329.17 496.343 6371.92 456.381 6423.67 456.381ZM6423.67 426.107C6397.22 426.116 6371.43 433.886 6349.88 448.336C6328.34 462.786 6312.1 483.199 6303.44 506.738C6294.78 530.277 6294.12 555.772 6301.56 579.68C6308.99 603.588 6324.14 624.722 6344.92 640.144C6383.49 680.711 6381.56 832.686 6381.56 832.686H6466.42C6466.42 832.686 6463.85 680.711 6502.74 640.447C6530.38 619.86 6548.7 588.678 6550.95 553.258C6551.27 549.928 6551.27 547.808 6551.27 546.295V545.084C6550.93 513.421 6537.33 483.166 6513.44 460.889C6489.55 438.612 6457.29 426.114 6423.67 426.107Z" fill="#FFB02E"/>
<path d="M6535.06 890.904C6537.14 890.562 6539.13 889.838 6540.91 888.772C6542.7 887.706 6544.24 886.319 6545.45 884.692C6546.67 883.064 6547.53 881.227 6547.99 879.285C6548.45 877.344 6548.5 875.336 6548.14 873.376C6547.78 871.416 6547.01 869.542 6545.88 867.862C6544.75 866.182 6543.27 864.729 6541.55 863.585C6539.82 862.44 6537.87 861.628 6535.81 861.194C6533.74 860.76 6531.61 860.712 6529.53 861.054L6312.89 896.777C6310.81 897.119 6308.82 897.844 6307.03 898.91C6305.25 899.976 6303.71 901.362 6302.49 902.99C6301.28 904.617 6300.42 906.455 6299.95 908.396C6299.49 910.338 6299.44 912.346 6299.81 914.306C6300.17 916.266 6300.94 918.139 6302.07 919.819C6303.2 921.499 6304.67 922.953 6306.4 924.097C6308.13 925.241 6310.08 926.053 6312.14 926.488C6314.2 926.922 6316.34 926.969 6318.42 926.627L6535.06 890.904ZM6533.45 955.993C6537.6 955.255 6541.28 953.007 6543.68 949.736C6546.09 946.465 6547.03 942.434 6546.3 938.515C6545.57 934.596 6543.24 931.104 6539.8 928.794C6536.36 926.485 6532.09 925.543 6527.92 926.173L6314.17 961.594C6312.02 961.861 6309.95 962.536 6308.09 963.577C6306.22 964.617 6304.6 966.003 6303.32 967.65C6302.04 969.296 6301.12 971.171 6300.63 973.159C6300.14 975.148 6300.08 977.21 6300.45 979.221C6300.83 981.232 6301.63 983.151 6302.81 984.862C6304 986.573 6305.54 988.041 6307.34 989.177C6309.14 990.314 6311.17 991.095 6313.3 991.474C6315.43 991.853 6317.62 991.822 6319.73 991.383L6533.45 955.993Z" fill="#D3D3D3"/>
<path d="M6362.34 297.141C6326.66 355.267 6344.66 427.924 6402.52 459.106C6460.38 490.288 6535.91 468.794 6571.59 410.668C6607.27 352.542 6589.27 279.885 6531.41 248.703C6473.56 217.521 6398.02 239.015 6362.34 297.141Z" fill="#FFF478"/>
<path d="M416.463 667.15L422.163 475.25H413.613L285.363 816.3L157.113 475.25H148.563L154.263 667.15V974H45.9633V310.9H194.163L286.313 555.05H292.963L386.063 310.9H524.763V974H416.463V667.15ZM837.892 985.4C798.626 985.4 763.792 979.383 733.392 967.35C702.992 955.317 677.342 938.217 656.442 916.05C636.176 893.883 620.659 867.283 609.892 836.25C599.126 804.583 593.742 769.117 593.742 729.85C593.742 689.95 599.126 654.167 609.892 622.5C621.292 590.833 637.126 563.917 657.392 541.75C677.659 519.583 702.042 502.483 730.542 490.45C759.676 478.417 792.292 472.4 828.392 472.4C863.859 472.4 895.842 478.417 924.342 490.45C952.842 501.85 976.909 518.317 996.542 539.85C1016.81 561.383 1032.33 587.35 1043.09 617.75C1053.86 648.15 1059.24 681.717 1059.24 718.45V758.35H715.342V770.7C715.342 806.167 726.426 834.983 748.592 857.15C770.759 878.683 801.792 889.45 841.692 889.45C872.092 889.45 898.059 883.433 919.592 871.4C941.759 858.733 960.126 842.267 974.692 822L1044.04 891.35C1026.31 917.317 1000.34 939.483 966.142 957.85C932.576 976.217 889.826 985.4 837.892 985.4ZM829.342 561.7C795.142 561.7 767.592 572.467 746.692 594C725.792 615.533 715.342 644.033 715.342 679.5V686.15H937.642V677.6C937.642 642.133 927.826 613.95 908.192 593.05C889.192 572.15 862.909 561.7 829.342 561.7ZM1117.77 974V483.8H1218.47V551.25H1224.17C1231.77 529.717 1242.54 511.35 1256.47 496.15C1271.04 480.317 1291.3 472.4 1317.27 472.4C1341.97 472.4 1361.6 479.683 1376.17 494.25C1390.74 508.183 1400.24 528.133 1404.67 554.1H1409.42C1417.65 531.933 1429.69 512.933 1445.52 497.1C1461.99 480.633 1485.1 472.4 1514.87 472.4C1550.97 472.4 1576.94 485.383 1592.77 511.35C1608.6 537.317 1616.52 575.633 1616.52 626.3V974H1516.77V640.55C1516.77 612.05 1512.65 592.1 1504.42 580.7C1496.82 569.3 1485.1 563.6 1469.27 563.6C1454.7 563.6 1442.35 568.35 1432.22 577.85C1422.72 587.35 1417.97 601.917 1417.97 621.55V974H1317.27V640.55C1317.27 612.05 1313.47 592.1 1305.87 580.7C1298.27 569.3 1286.55 563.6 1270.72 563.6C1255.52 563.6 1242.85 568.35 1232.72 577.85C1223.22 587.35 1218.47 601.917 1218.47 621.55V974H1117.77ZM1908.75 985.4C1871.38 985.4 1837.82 979.383 1808.05 967.35C1778.92 955.317 1753.9 938.217 1733 916.05C1712.73 893.883 1696.9 866.967 1685.5 835.3C1674.73 803.633 1669.35 768.167 1669.35 728.9C1669.35 689.633 1674.73 654.167 1685.5 622.5C1696.9 590.833 1712.73 563.917 1733 541.75C1753.9 519.583 1778.92 502.483 1808.05 490.45C1837.82 478.417 1871.38 472.4 1908.75 472.4C1945.48 472.4 1978.73 478.417 2008.5 490.45C2038.27 502.483 2063.28 519.583 2083.55 541.75C2104.45 563.917 2120.28 590.833 2131.05 622.5C2142.45 654.167 2148.15 689.633 2148.15 728.9C2148.15 768.167 2142.45 803.633 2131.05 835.3C2120.28 866.967 2104.45 893.883 2083.55 916.05C2063.28 938.217 2038.27 955.317 2008.5 967.35C1978.73 979.383 1945.48 985.4 1908.75 985.4ZM1908.75 892.3C1943.58 892.3 1971.13 881.85 1991.4 860.95C2011.67 839.417 2021.8 808.067 2021.8 766.9V690.9C2021.8 649.733 2011.67 618.7 1991.4 597.8C1971.13 576.267 1943.58 565.5 1908.75 565.5C1873.92 565.5 1846.37 576.267 1826.1 597.8C1805.83 618.7 1795.7 649.733 1795.7 690.9V766.9C1795.7 808.067 1805.83 839.417 1826.1 860.95C1846.37 881.85 1873.92 892.3 1908.75 892.3ZM2236.13 878.05H2357.73V579.75H2236.13V483.8H2479.33V617.75H2486.93C2491.36 600.65 2497.38 584.183 2504.98 568.35C2513.21 551.883 2523.35 537.633 2535.38 525.6C2548.05 512.933 2563.25 502.8 2580.98 495.2C2598.71 487.6 2619.93 483.8 2644.63 483.8H2697.83V597.8H2597.13C2560.4 597.8 2531.58 608.567 2510.68 630.1C2489.78 651.633 2479.33 679.183 2479.33 712.75V878.05H2649.38V974H2236.13V878.05ZM3124.96 483.8H3248.46L3013.81 1061.4C3000.51 1094.97 2982.77 1120.3 2960.61 1137.4C2938.44 1155.13 2907.09 1164 2866.56 1164H2777.26V1068.05H2894.11L2931.16 969.25L2733.56 483.8H2862.76L2937.81 689L2990.06 844.8H2996.71L3048.96 689L3124.96 483.8Z" fill="#D5C247"/>
<path d="M3960.24 413.5V974H3836.74V413.5H3637.24V310.9H4159.74V413.5H3960.24ZM4451.02 985.4C4411.75 985.4 4376.92 979.383 4346.52 967.35C4316.12 955.317 4290.47 938.217 4269.57 916.05C4249.3 893.883 4233.79 867.283 4223.02 836.25C4212.25 804.583 4206.87 769.117 4206.87 729.85C4206.87 689.95 4212.25 654.167 4223.02 622.5C4234.42 590.833 4250.25 563.917 4270.52 541.75C4290.79 519.583 4315.17 502.483 4343.67 490.45C4372.8 478.417 4405.42 472.4 4441.52 472.4C4476.99 472.4 4508.97 478.417 4537.47 490.45C4565.97 501.85 4590.04 518.317 4609.67 539.85C4629.94 561.383 4645.45 587.35 4656.22 617.75C4666.99 648.15 4672.37 681.717 4672.37 718.45V758.35H4328.47V770.7C4328.47 806.167 4339.55 834.983 4361.72 857.15C4383.89 878.683 4414.92 889.45 4454.82 889.45C4485.22 889.45 4511.19 883.433 4532.72 871.4C4554.89 858.733 4573.25 842.267 4587.82 822L4657.17 891.35C4639.44 917.317 4613.47 939.483 4579.27 957.85C4545.7 976.217 4502.95 985.4 4451.02 985.4ZM4442.47 561.7C4408.27 561.7 4380.72 572.467 4359.82 594C4338.92 615.533 4328.47 644.033 4328.47 679.5V686.15H4550.77V677.6C4550.77 642.133 4540.95 613.95 4521.32 593.05C4502.32 572.15 4476.04 561.7 4442.47 561.7ZM4978.85 985.4C4925.02 985.4 4878.47 977.167 4839.2 960.7C4799.93 943.6 4769.22 920.8 4747.05 892.3L4818.3 827.7C4838.57 849.867 4861.68 866.967 4887.65 879C4914.25 891.033 4944.97 897.05 4979.8 897.05C5010.2 897.05 5034.58 891.983 5052.95 881.85C5071.32 871.717 5080.5 856.2 5080.5 835.3C5080.5 817.567 5074.17 805.533 5061.5 799.2C5049.47 792.867 5033.32 788.117 5013.05 784.95L4934.2 772.6C4913.93 769.433 4893.98 765 4874.35 759.3C4855.35 752.967 4838.25 744.417 4823.05 733.65C4808.48 722.883 4796.77 709.267 4787.9 692.8C4779.03 675.7 4774.6 655.117 4774.6 631.05C4774.6 579.75 4793.6 540.483 4831.6 513.25C4870.23 486.017 4923.12 472.4 4990.25 472.4C5037.75 472.4 5077.97 479.05 5110.9 492.35C5144.47 505.65 5172.02 524.333 5193.55 548.4L5129.9 618.7C5115.97 603.5 5097.28 590.2 5073.85 578.8C5051.05 566.767 5021.92 560.75 4986.45 560.75C4924.38 560.75 4893.35 580.067 4893.35 618.7C4893.35 636.433 4899.68 648.783 4912.35 655.75C4925.02 662.083 4941.48 666.833 4961.75 670L5039.65 682.35C5060.55 685.517 5080.5 690.267 5099.5 696.6C5119.13 702.3 5136.23 710.533 5150.8 721.3C5166 732.067 5178.03 745.683 5186.9 762.15C5195.77 778.617 5200.2 798.883 5200.2 822.95C5200.2 873.617 5180.57 913.517 5141.3 942.65C5102.67 971.15 5048.52 985.4 4978.85 985.4ZM5555.13 974C5508.26 974 5473.75 961.65 5451.58 936.95C5429.41 912.25 5418.33 880.267 5418.33 841V579.75H5275.83V483.8H5372.73C5392.36 483.8 5406.3 480 5414.53 472.4C5422.76 464.167 5426.88 449.917 5426.88 429.65V310.9H5539.93V483.8H5739.43V579.75H5539.93V878.05H5739.43V974H5555.13Z" fill="#828282"/>
</svg>
