<svg width="448" height="448" viewBox="0 0 448 448" fill="none" xmlns="http://www.w3.org/2000/svg">
<path fill-rule="evenodd" clip-rule="evenodd" d="M107.078 6.3938C184.871 -2.13127 263.129 -2.13127 340.922 6.3938L374.486 10.0795C390.734 11.8578 406.019 20.2986 417.871 34.0382C429.722 47.7777 437.449 66.0135 439.801 85.7993C450.733 177.455 450.733 270.572 439.801 362.228C437.444 382.009 429.716 400.238 417.865 413.972C406.013 427.707 390.731 436.143 374.486 437.921L340.922 441.606C263.129 450.131 184.871 450.131 107.078 441.606L73.5141 437.921C57.2689 436.143 41.9866 427.707 30.1354 413.972C18.2842 400.238 10.556 382.009 8.19896 362.228C-2.73299 270.572 -2.73299 177.455 8.19896 85.7993C10.5514 66.0135 18.2776 47.7777 30.1293 34.0382C41.9809 20.2986 57.2657 11.8578 73.5141 10.0795L107.078 6.3938ZM88.1515 84.1732C85.6255 82.5035 82.7892 81.6659 79.9199 81.7423C77.0507 81.8187 74.2467 82.8065 71.7822 84.609C69.3178 86.4116 67.2771 88.9673 65.8599 92.0261C64.4427 95.0849 63.6974 98.5422 63.697 102.06V359.518C63.697 364.908 65.4441 370.078 68.554 373.89C71.664 377.702 75.8819 379.843 80.28 379.843C84.6781 379.843 88.8961 377.702 92.0061 373.89C95.116 370.078 96.8631 364.908 96.8631 359.518V136.098L216.129 214.799C221.037 218.051 226.963 218.051 231.871 214.799L351.137 136.098V359.518C351.137 364.908 352.884 370.078 355.994 373.89C359.104 377.702 363.322 379.843 367.72 379.843C372.118 379.843 376.336 377.702 379.446 373.89C382.556 370.078 384.303 364.908 384.303 359.518V102.06C384.303 98.5422 383.557 95.0849 382.14 92.0261C380.723 88.9673 378.682 86.4116 376.218 84.609C373.753 82.8065 370.949 81.8187 368.08 81.7423C365.211 81.6659 362.375 82.5035 359.849 84.1732L224 173.823L88.1515 84.1732Z" fill="#5F5F5F"/>
</svg>
